<svg aria-hidden="true" style="position: absolute; width: 0; height: 0; overflow: hidden;" version="1.1" xmlns="http://www.w3.org/2000/svg" xmlns:xlink="http://www.w3.org/1999/xlink">
<defs>
<symbol id="icon-google-plus" viewBox="0 0 32 32">
<path d="M28 14v-4h-2v4h-4v2h4v4h2v-4h4v-2z"></path>
<path d="M10 14v4h5.658c-0.826 2.328-3.050 4-5.658 4-3.308 0-6-2.692-6-6s2.692-6 6-6c1.434 0 2.814 0.514 3.886 1.448l2.628-3.016c-1.8-1.568-4.112-2.432-6.514-2.432-5.514 0-10 4.486-10 10s4.486 10 10 10 10-4.486 10-10v-2h-10z"></path>
</symbol>
<symbol id="icon-linkedin" viewBox="0 0 32 32">
<path d="M10.001 26.438h-4.375v-14.125h4.375zM10.437 7.812c0-1.414-1.147-2.562-2.561-2.562-1.419 0-2.563 1.148-2.563 2.562s1.145 2.563 2.563 2.563c1.414 0 2.561-1.148 2.561-2.563zM26.375 18.666c0-3.792-0.801-6.604-5.23-6.604-2.128 0-3.557 1.064-4.14 2.171h-0.004v-1.921h-4.25v14.125h4.25v-7.013c0-1.837 0.468-3.616 2.744-3.616 2.246 0 2.318 2.1 2.318 3.733v6.896h4.313zM32 28.25v-24.5c0-2.068-1.682-3.75-3.75-3.75h-24.5c-2.068 0-3.75 1.682-3.75 3.75v24.5c0 2.068 1.682 3.75 3.75 3.75h24.5c2.068 0 3.75-1.682 3.75-3.75zM28.25 2.5c0.689 0 1.25 0.561 1.25 1.25v24.5c0 0.689-0.561 1.25-1.25 1.25h-24.5c-0.689 0-1.25-0.561-1.25-1.25v-24.5c0-0.689 0.561-1.25 1.25-1.25z"></path>
</symbol>
<symbol id="icon-youtube" viewBox="0 0 32 32">
<path d="M31.292 7.905l0.040 0.261c-0.387-1.372-1.431-2.431-2.757-2.816l-0.028-0.007c-2.495-0.677-12.533-0.677-12.533-0.677s-10.013-0.013-12.533 0.677c-1.352 0.392-2.397 1.451-2.777 2.795l-0.007 0.028c-0.932 4.868-0.939 10.717 0.041 15.929l-0.041-0.264c0.387 1.372 1.431 2.431 2.757 2.816l0.028 0.007c2.492 0.679 12.533 0.679 12.533 0.679s10.012 0 12.533-0.679c1.353-0.392 2.399-1.451 2.779-2.795l0.007-0.028c0.424-2.264 0.667-4.869 0.667-7.531 0-0.097 0-0.196-0.001-0.295 0.001-0.091 0.001-0.199 0.001-0.307 0-2.663-0.243-5.268-0.708-7.795zM12.811 20.868v-9.724l8.355 4.869z"></path>
</symbol>
</defs>
</svg>
